<svg width="40" height="40" viewBox="0 0 40 40" fill="none" xmlns="http://www.w3.org/2000/svg">
<path d="M20 0.494902C8.95125 0.494902 0 9.45365 0 20.4949C0 29.3362 5.73 36.8299 13.6713 39.4737C14.675 39.6624 15.0375 39.0437 15.0375 38.5087C15.0375 38.0336 15.0263 36.7774 15.0188 35.1099C9.4525 36.3149 8.28 32.4212 8.28 32.4212C7.36875 30.1162 6.05375 29.4974 6.05375 29.4974C4.24375 28.2612 6.1975 28.2874 6.1975 28.2874C8.2025 28.4237 9.2575 30.3437 9.2575 30.3437C11.0413 33.4037 13.9375 32.5187 15.0838 32.0037C15.2588 30.7149 15.78 29.8287 16.3475 29.3349C11.9075 28.8337 7.23875 27.1149 7.23875 19.4512C7.23875 17.2624 8.01375 15.4799 9.295 14.0799C9.07375 13.5787 8.39625 11.5412 9.47125 8.78615C9.47125 8.78615 11.145 8.2524 14.9713 10.8374C16.6011 10.3941 18.2822 10.1667 19.9713 10.1612C21.6712 10.1724 23.37 10.3949 24.9712 10.8374C28.775 8.2524 30.4475 8.78615 30.4475 8.78615C31.5212 11.5412 30.8437 13.5774 30.6487 14.0799C31.9175 15.4799 32.6925 17.2637 32.6925 19.4512C32.6925 27.1324 28.0175 28.8262 23.5725 29.3149C24.2675 29.9137 24.9187 31.1449 24.9187 33.0136C24.9187 35.6887 24.8938 37.8437 24.8938 38.4949C24.8938 39.0149 25.2437 39.6399 26.2737 39.4387C34.2738 36.8224 39.9975 29.3224 39.9975 20.4937C39.9975 9.4524 31.0462 0.493652 19.9975 0.493652L20 0.494902Z" fill="#D19D18"/>
</svg>
