<svg width="40" height="40" viewBox="0 0 40 40" fill="none" xmlns="http://www.w3.org/2000/svg">
<path fill-rule="evenodd" clip-rule="evenodd" d="M20 40C31.0457 40 40 31.0457 40 20C40 8.9543 31.0457 0 20 0C8.9543 0 0 8.9543 0 20C0 31.0457 8.9543 40 20 40ZM31.0496 14.1568C32.0802 14.0473 33.0806 13.7663 34 13.3758C33.303 14.3757 32.4287 15.2663 31.4312 15.9852C31.4462 16.2042 31.4462 16.4231 31.4462 16.642C31.4462 23.3136 26.2906 31 16.8686 31C13.9663 31 11.2714 30.1716 9 28.7367C9.41161 28.784 9.8082 28.7988 10.2378 28.7988C12.6324 28.7988 14.8376 28 16.5982 26.642C14.3479 26.5947 12.4581 25.142 11.8092 23.142C12.1276 23.1864 12.4431 23.2189 12.7766 23.2189C13.2318 23.2177 13.685 23.16 14.1256 23.0473C11.7791 22.5799 10.0185 20.5473 10.0185 18.0947V18.0326C10.7286 18.4231 11.5222 18.643 12.3349 18.6746C10.9559 17.7663 10.0516 16.2219 10.0516 14.4704C10.0486 13.5752 10.2893 12.6956 10.7486 11.9231C13.2693 14.9852 17.0609 16.9852 21.3122 17.2042C21.2341 16.8284 21.186 16.4379 21.186 16.0473C21.186 13.2663 23.4694 11 26.3086 11C27.0103 10.9985 27.7049 11.1393 28.3489 11.4136C28.993 11.688 29.5728 12.09 30.0522 12.5947C31.1991 12.3763 32.299 11.9639 33.303 11.3758C32.9208 12.542 32.1196 13.5309 31.0496 14.1568Z" fill="#D19D18"/>
</svg>
