<svg width="460" height="318" viewBox="0 0 460 318" fill="none" xmlns="http://www.w3.org/2000/svg">
<path d="M33.2535 175.364L0.645996 269.144L139.824 317.396L172.431 223.617L33.2535 175.364Z" fill="#D6D4D0"/>
<path d="M172.342 223.688C172.342 223.688 171.8 224.05 170.625 224.501C169.36 225.043 167.643 225.676 165.564 226.579C161.045 228.386 154.629 230.825 146.857 233.896C130.861 240.039 109.081 248.35 84.8606 257.565L84.3184 257.745L84.0472 257.294C83.8665 256.932 83.5954 256.571 83.3243 256.21C69.4068 233.987 56.8449 213.932 47.6268 199.207C43.1985 191.98 39.4932 186.108 36.9627 181.862C35.7879 179.875 34.7938 178.339 34.0708 177.075C33.4382 175.991 33.0767 175.358 33.1671 175.358C33.1671 175.358 33.6189 175.9 34.3419 176.894C35.1553 178.068 36.1494 179.604 37.4146 181.501C40.1258 185.657 43.8311 191.438 48.4402 198.575C57.7486 213.209 70.4912 233.264 84.4991 255.306C84.7702 255.668 84.951 256.029 85.2221 256.39L84.4087 256.119C108.629 246.995 130.499 238.775 146.495 232.812C154.358 229.922 160.774 227.573 165.293 225.856C167.462 225.134 169.179 224.501 170.444 224.05C171.709 223.869 172.342 223.688 172.342 223.688Z" fill="#BBB7B1"/>
<path d="M0.633462 269.218C0.452715 268.857 15.3643 259.642 33.9812 248.621C52.5981 237.6 67.7808 228.838 67.9616 229.199C68.1423 229.56 53.2307 238.775 34.6138 249.796C16.0873 260.817 0.814208 269.489 0.633462 269.218Z" fill="#BBB7B1"/>
<path d="M114.684 244.014C115.045 243.924 120.92 260.275 127.878 280.51C134.837 300.836 140.169 317.367 139.808 317.458C139.446 317.548 133.572 301.197 126.613 280.962C119.654 260.726 114.322 244.104 114.684 244.014Z" fill="#BBB7B1"/>
<path d="M443.822 151.066L306.16 174.365L321.912 267.165L459.574 243.867L443.822 151.066Z" fill="#BBB7B1"/>
<path d="M443.823 151.057C443.823 151.057 443.462 151.599 442.739 152.503C441.925 153.496 440.841 154.851 439.485 156.477C436.503 160 432.346 164.969 427.285 171.112C416.801 183.488 402.432 200.381 386.617 219.081L386.255 219.442L385.803 219.171C385.442 218.99 385.08 218.81 384.719 218.539C363.029 206.434 343.418 195.503 329.049 187.463C322 183.488 316.306 180.236 312.24 177.887C310.342 176.803 308.805 175.9 307.721 175.267C306.727 174.635 306.185 174.274 306.185 174.274C306.185 174.274 306.817 174.545 307.811 175.087C308.986 175.719 310.523 176.532 312.42 177.526C316.578 179.784 322.361 182.856 329.411 186.74C343.78 194.69 363.481 205.53 385.261 217.455C385.623 217.635 385.984 217.906 386.346 218.087L385.532 218.268C401.528 199.658 415.988 182.856 426.471 170.57C431.713 164.608 435.961 159.729 438.943 156.206C440.389 154.58 441.564 153.316 442.377 152.322C443.371 151.509 443.823 151.057 443.823 151.057Z" fill="#D6D4D0"/>
<path d="M321.82 267.14C321.548 266.96 329.682 252.506 340.165 234.8C350.558 217.094 359.234 202.911 359.596 203.092C359.867 203.272 351.733 217.726 341.25 235.432C330.857 253.138 322.181 267.321 321.82 267.14Z" fill="#D6D4D0"/>
<path d="M405.144 194.239C405.415 193.968 417.706 204.898 432.798 218.539C447.8 232.27 459.82 243.562 459.548 243.833C459.277 244.104 446.987 233.174 431.894 219.533C416.892 205.802 404.873 194.51 405.144 194.239Z" fill="#D6D4D0"/>
<path d="M306.129 3.583L281.306 66.6248L374.924 103.381L399.747 40.339L306.129 3.583Z" fill="#D6D4D0"/>
<path d="M399.721 41.208C399.721 41.208 399.36 41.3887 398.546 41.6597C397.643 42.021 396.468 42.3824 395.022 42.9244C391.859 44.0084 387.431 45.5442 382.098 47.3509C371.073 51.0547 355.89 56.2039 339.171 61.8048L338.81 61.8951L338.629 61.5338C338.448 61.2628 338.358 60.9918 338.177 60.7207C329.321 45.1828 321.277 31.1806 315.403 20.8822C312.601 15.8234 310.252 11.6679 308.625 8.77709C307.902 7.42204 307.269 6.338 306.818 5.43463C306.456 4.71194 306.185 4.26025 306.275 4.26025C306.275 4.26025 306.546 4.6216 306.998 5.3443C307.45 6.15733 308.173 7.24137 308.987 8.59642C310.704 11.4872 313.144 15.5524 316.036 20.6112C322 30.8193 330.134 44.8215 339.081 60.3594C339.262 60.6304 339.352 60.9014 339.533 61.1724L338.99 60.9918C355.8 55.4812 370.892 50.4224 382.008 46.8089C387.431 45.0925 391.859 43.6471 395.022 42.6534C396.468 42.2017 397.643 41.8404 398.546 41.5693C399.269 41.2983 399.721 41.208 399.721 41.208Z" fill="#BBB7B1"/>
<path d="M281.332 67.496C281.242 67.3154 291.635 61.3531 304.648 54.3972C317.662 47.3509 328.236 41.8404 328.417 42.1114C328.507 42.2921 318.114 48.164 305.1 55.2102C292.087 62.1662 281.513 67.6767 281.332 67.496Z" fill="#BBB7B1"/>
<path d="M359.867 53.4939C360.138 53.4036 363.662 64.6957 367.82 78.7883C371.977 92.7905 375.14 104.263 374.959 104.354C374.688 104.444 371.163 93.1518 367.006 79.0593C362.759 64.9667 359.596 53.4939 359.867 53.4939Z" fill="#BBB7B1"/>
<path d="M123.992 155.304L337.183 153.768L343.148 298.668L122.366 296.59L123.992 155.304Z" fill="#684211"/>
<path d="M123.992 155.304L224.849 73.7294C229.096 70.2966 235.242 70.2966 239.489 73.8198L337.092 153.858" fill="#684211"/>
<g opacity="0.3">
<g opacity="0.3">
<g opacity="0.3">
<path opacity="0.3" d="M123.992 155.304L224.849 73.7294C229.096 70.2966 235.242 70.2966 239.489 73.8198L337.092 153.858" fill="black"/>
</g>
</g>
</g>
<path d="M122.365 296.59C122.094 296.319 139.175 277.71 160.503 255.035C181.831 232.271 199.273 214.113 199.544 214.384C199.815 214.655 182.735 233.264 161.407 255.939C140.169 278.613 122.637 296.861 122.365 296.59Z" fill="#271804"/>
<path d="M343.148 298.668C342.877 298.939 326.248 280.691 306.004 257.926C285.761 235.161 269.584 216.552 269.855 216.281C270.126 216.01 286.755 234.258 306.998 257.023C327.242 279.697 343.419 298.397 343.148 298.668Z" fill="#271804"/>
<g opacity="0.5">
<g opacity="0.5">
<g opacity="0.5">
<path opacity="0.5" d="M337.183 153.768L230.181 239.226L123.992 155.304" fill="black"/>
</g>
</g>
</g>
<path d="M134.747 163.253L134.385 96.6749L321.096 94.5068L323.175 164.518L230.181 238.142L134.747 163.253Z" fill="#FFFEFA"/>
<path d="M134.747 163.253C134.747 163.253 135.379 163.705 136.464 164.608C137.639 165.512 139.356 166.867 141.525 168.583C145.953 172.016 152.46 177.165 160.774 183.669C177.403 196.678 201.262 215.377 230.181 238.052H229.91C256.751 216.823 288.472 191.619 322.904 164.427L322.814 164.608C322.452 151.238 322 137.236 321.548 122.963C321.277 113.387 321.006 103.902 320.735 94.5972L321.006 94.8682C245.816 95.6812 179.391 96.4943 134.385 96.9459L134.566 96.7653C134.656 117.723 134.656 134.345 134.747 145.728C134.747 151.419 134.747 155.846 134.747 158.827C134.747 160.272 134.747 161.446 134.747 162.169C134.747 162.801 134.747 163.253 134.747 163.253C134.747 163.253 134.747 162.892 134.747 162.079C134.747 161.356 134.747 160.182 134.747 158.736C134.747 155.755 134.656 151.419 134.656 145.728C134.566 134.345 134.476 117.633 134.295 96.6749V96.4943H134.476C179.572 95.9522 245.906 95.1392 321.096 94.2358H321.368V94.5069C321.639 103.812 321.91 113.297 322.181 122.873C322.633 137.146 322.994 151.148 323.446 164.518V164.608L323.356 164.699C288.924 191.89 257.112 217.094 230.271 238.323L230.181 238.413L230.091 238.323C201.171 215.558 177.313 196.768 160.684 183.76C152.37 177.255 145.953 172.106 141.525 168.673C139.356 166.957 137.639 165.602 136.554 164.699C135.289 163.705 134.747 163.253 134.747 163.253Z" fill="#271804"/>
<path d="M291.544 127.931C291.544 128.022 262.987 128.383 227.831 128.564C192.586 128.744 164.118 128.835 164.118 128.744C164.118 128.654 192.676 128.293 227.831 128.112C263.077 127.931 291.544 127.841 291.544 127.931Z" fill="#271804"/>
<path d="M291.544 146.812C291.544 146.902 262.987 147.264 227.831 147.444C192.586 147.625 164.118 147.715 164.118 147.625C164.118 147.535 192.676 147.173 227.831 146.993C263.077 146.722 291.544 146.631 291.544 146.812Z" fill="#271804"/>
<path d="M291.544 168.402C291.544 168.493 262.987 168.854 227.831 169.035C192.586 169.215 164.118 169.306 164.118 169.215C164.118 169.125 192.676 168.764 227.831 168.583C263.077 168.402 291.544 168.312 291.544 168.402Z" fill="#271804"/>
<path d="M291.544 190.083C291.544 190.174 264.342 190.445 230.723 190.716C197.104 190.896 169.902 190.987 169.902 190.806C169.902 190.716 197.104 190.445 230.723 190.174C264.342 189.993 291.544 189.993 291.544 190.083Z" fill="#271804"/>
<path d="M267.685 209.144C267.685 209.144 267.414 209.144 266.962 209.235C266.42 209.235 265.697 209.235 264.794 209.325C262.896 209.325 260.184 209.415 256.931 209.415C250.243 209.506 241.025 209.686 230.904 209.777C220.782 209.957 211.564 210.048 204.876 210.048C201.623 210.048 198.911 210.048 197.014 210.048C196.11 210.048 195.387 210.048 194.845 210.048C194.393 210.048 194.122 210.048 194.122 210.048C194.122 210.048 194.393 210.048 194.845 209.957C195.387 209.957 196.11 209.957 197.014 209.867C198.911 209.867 201.623 209.777 204.876 209.777C211.564 209.686 220.782 209.506 230.904 209.415C241.025 209.235 250.243 209.144 256.931 209.144C260.184 209.144 262.896 209.144 264.794 209.144C265.697 209.144 266.42 209.144 266.962 209.144C267.414 209.054 267.685 209.144 267.685 209.144Z" fill="#271804"/>
<path d="M243.646 227.392C243.646 227.483 237.591 227.663 230.09 227.663C222.589 227.663 216.534 227.573 216.534 227.392C216.534 227.302 222.589 227.121 230.09 227.121C237.591 227.121 243.646 227.302 243.646 227.392Z" fill="#271804"/>
<path d="M306.546 212.577C318.974 212.577 329.049 202.506 329.049 190.083C329.049 177.66 318.974 167.589 306.546 167.589C294.118 167.589 284.043 177.66 284.043 190.083C284.043 202.506 294.118 212.577 306.546 212.577Z" fill="#271804"/>
<path d="M300.672 212.577C313.1 212.577 323.175 202.506 323.175 190.083C323.175 177.66 313.1 167.589 300.672 167.589C288.244 167.589 278.169 177.66 278.169 190.083C278.169 202.506 288.244 212.577 300.672 212.577Z" fill="#C6B8A6"/>
<path d="M303.474 179.604V198.304H300.039V182.495H296.063V179.604H303.474Z" fill="#D6D4D0"/>
</svg>
